<?xml version="1.0" encoding="UTF-8"?>
<svg viewBox="194.99 207.85 269.01 244.15" xmlns="http://www.w3.org/2000/svg">
    <g fill="none" stroke="#f5f5f5" stroke-width="10">
        <path d="m234 261c1-1 0.85274-2.1731 2-3 1.814-1.3075 5.0566-2.9175 8-5 4.0817-2.8879 9.0728-5.8819 14-9 6.0934-3.8561 13-8 20-12s13.907-8.1439 20-12c4.9272-3.1181 8.3869-8.0824 11-7 0.92389 0.38269 0.20139 4.0445-1 9-1.7153 7.0752-4 14-7 22s-6.4598 15.842-9 24c-2.4517 7.8733-3.9187 15.012-5 22-0.93018 6.0112-2 11-2 14v2 1"/>
        <path d="m289 232c0 2 0 3-1 4s-3.297 3.6138-6 6c-3.3527 2.9597-8.0782 5.8985-12 9-6.1261 4.8447-11.233 8.7332-17 14-5.2214 4.7683-10.731 9.2842-16 14-4.7712 4.2704-7.6253 7.4136-12 11-2.7883 2.2859-4.7141 4.2117-7 7-1.7932 2.1874-4.1443 3.9341-5 6-1.2101 2.9216-2.6106 5.1593-4 8-1.5841 3.2389-3.5414 5.7027-5 9-1.668 3.7706-2.3108 7.0803-3 10-0.51375 2.1762-1 4-1 6 0 3-0.21014 5.0784 1 8 1.7114 4.1317 3.9379 7.0473 7 11 3.9214 5.0619 8 10 12 14 5 5 9.763 9.3806 16 13 5.802 3.367 13 7 21 9s15.953 4.499 24 5c5.9884 0.37283 12 0 18 0 5 0 9 0 13 1h2 2 1"/>
        <path d="m340 341v6c0 5-0.49268 9.0243 0 14 0.50244 5.0742 2.168 9.9204 4 14 2.206 4.9126 3.1346 8.8115 6 11 2.5131 1.9195 4.0258 1.3204 6 1 3.1214-0.50653 5.1903-2.8815 7-6 2.2447-3.868 4.0698-7.9888 5-14 1.0813-6.9879 1-13 1-18v-10-2-2-1"/>
        <path d="m406 346c-1 0-1.8527 0.1731-3 1-1.814 1.3075-3.9341 2.1443-6 3-2.9216 1.2101-5 2-7 4s-4.4863 3.8238-5 6c-0.22977 0.97324 0 3 0 4s2 1 3 1h3c1 0 1.6173 0.07611 2 1 0.5412 1.3066 1 2 1 3v3c0 1 0.30655 2.4588-1 3-0.92389 0.38269-2.8527 1.1731-4 2-1.814 1.3075-5 2-7 3l-2 1-1 1v-1"/>
        <path d="m418 362c1-1 2.1522-1.2346 4-2 1.3066-0.5412 2.4588-2.6934 3-4 0.76538-1.8478 0-4 0-6s0-3-1-4-2-1-4-1c-1 0-3.186 0.69254-5 2-2.2945 1.6538-2.7899 4.0784-4 7-0.85571 2.0659-2.4863 4.8238-3 7-0.4595 1.9465 0 4 0 6 0 1 2 3 4 4s4.8786 1.4935 8 2c2.9613 0.48056 7 0 10 0 2 0 3-1 3-2l1-1v-1-1"/>
        <path d="m371 447c-1-1-2.4588-2.6934-3-4-0.76538-1.8478-1-5-1-7v-9c0-2 1-4 2-6s2.2929-2.2929 3-3 1.2929-1.7071 2-1 0.4588 2.6934 1 4c0.76538 1.8478 0.29291 3.2929 1 4s1-1 1-2 0.77023-2.0268 1-3c0.51373-2.1762 1.2929-2.2929 2-3s2.0761-1.3827 3-1c1.3066 0.5412 1 2 2 4s2.4863 2.8238 3 5c0.22977 0.97324 0.23462 2.1522 1 4 0.5412 1.3066 1 2 1 3v1 1"/>
        <path d="m402 415c2 0 3.0268 0.22977 4 0 2.1762-0.51373 5-1 7-2s3.4588-1.6934 4-3c0.38269-0.92389 1-2 1-3s-0.07611-1.6173-1-2c-1.3066-0.5412-2-1-3-1s-3.186-0.30746-5 1c-2.2945 1.6538-3.3462 2.7055-5 5-1.3075 1.814-2 4-3 6s-1 4-1 6 0 4 1 6 3.066 3.8777 5 5c3.1185 1.8097 5 3 8 4s6 1 8 1c1 0 2.2929 0.70709 3 0s0-2 0-3v-3-3-1"/>
        <path d="m442 385c0 2 0.51944 4.0387 1 7 0.50653 3.1214 0.78986 6.0784 2 9 0.85571 2.0659 1.1443 4.9341 2 7 1.2101 2.9216 1 5 2 7s1 3 2 4v1"/>
        <path d="m458 423c-1 0-2 0-3 1s-2 2-2 3-0.38269 2.0761 0 3c0.5412 1.3066 2 1 3 1s2 0 2-1 1-1 1-2 0-2-1-2-1-1-2-1h-1"/>
    </g>
</svg>
