<svg xmlns="http://www.w3.org/2000/svg" viewBox="194.99 207.85 269.01 244.15">
    <g>
        <path stroke-width="10"
              d="m234,261c1,-1 0.85274,-2.1731 2,-3c1.814,-1.30746 5.05664,-2.91753 8,-5c4.0817,-2.88786 9.07278,-5.8819 14,-9c6.09344,-3.85612 13,-8 20,-12c7,-4 13.90656,-8.14388 20,-12c4.92722,-3.1181 8.38687,-8.0824 11,-7c0.92389,0.38269 0.20139,4.04453 -1,9c-1.71527,7.07515 -4,14 -7,22c-3,8 -6.45978,15.84235 -9,24c-2.45169,7.87332 -3.9187,15.01208 -5,22c-0.93018,6.01123 -2,11 -2,14l0,2l0,1"
              id="svg_10" stroke="whitesmoke" fill="none"/>
        <path stroke-width="10"
              d="m289,232c0,2 0,3 -1,4c-1,1 -3.297,3.61383 -6,6c-3.35266,2.95967 -8.07816,5.89851 -12,9c-6.1261,4.84467 -11.23273,8.73325 -17,14c-5.22144,4.76828 -10.73116,9.28415 -16,14c-4.77115,4.27039 -7.62532,7.4136 -12,11c-2.78833,2.28589 -4.71413,4.21167 -7,7c-1.7932,2.18735 -4.14429,3.93414 -5,6c-1.21014,2.92157 -2.61064,5.15927 -4,8c-1.58411,3.23892 -3.54137,5.70267 -5,9c-1.66801,3.77063 -2.31075,7.08026 -3,10c-0.51375,2.17624 -1,4 -1,6c0,3 -0.21014,5.07843 1,8c1.71141,4.13171 3.93788,7.04733 7,11c3.92142,5.06186 8,10 12,14c5,5 9.76305,9.38055 16,13c5.80199,3.36703 13,7 21,9c8,2 15.95331,4.49902 24,5c5.9884,0.37283 12,0 18,0c5,0 9,0 13,1l2,0l2,0l1,0"
              id="svg_12" stroke="whitesmoke" fill="none"/>
        <path stroke-width="10"
              d="m340,341c0,1 0,3 0,6c0,5 -0.49268,9.02432 0,14c0.50244,5.07422 2.16797,9.92035 4,14c2.20605,4.91257 3.13464,8.81146 6,11c2.51309,1.91949 4.02582,1.32037 6,1c3.12143,-0.50653 5.19028,-2.88153 7,-6c2.24469,-3.86798 4.06982,-7.98877 5,-14c1.0813,-6.98792 1,-13 1,-18c0,-5 0,-8 0,-10l0,-2l0,-2l0,-1"
              id="svg_13" stroke="whitesmoke" fill="none"/>
        <path stroke-width="10"
              d="m406,346c-1,0 -1.85272,0.1731 -3,1c-1.814,1.30746 -3.93414,2.14429 -6,3c-2.92157,1.21014 -5,2 -7,4c-2,2 -4.48627,3.82376 -5,6c-0.22977,0.97324 0,3 0,4c0,1 2,1 3,1c1,0 2,0 3,0c1,0 1.61731,0.07611 2,1c0.5412,1.30655 1,2 1,3c0,1 0,2 0,3c0,1 0.30655,2.4588 -1,3c-0.92389,0.38269 -2.85272,1.1731 -4,2c-1.814,1.30746 -5,2 -7,3l-2,1l-1,1l0,-1"
              id="svg_15" stroke="whitesmoke" fill="none"/>
        <path stroke-width="10"
              d="m418,362c1,-1 2.15225,-1.23462 4,-2c1.30655,-0.5412 2.4588,-2.69345 3,-4c0.76538,-1.84775 0,-4 0,-6c0,-2 0,-3 -1,-4c-1,-1 -2,-1 -4,-1c-1,0 -3.186,0.69254 -5,2c-2.29453,1.65381 -2.78986,4.07843 -4,7c-0.85571,2.06586 -2.48627,4.82376 -3,7c-0.4595,1.9465 0,4 0,6c0,1 2,3 4,4c2,1 4.87857,1.49347 8,2c2.96127,0.48056 7,0 10,0c2,0 3,-1 3,-2l1,-1l0,-1l0,-1"
              id="svg_16" stroke="whitesmoke" fill="none"/>
        <path stroke-width="10"
              d="m371,447c-1,-1 -2.4588,-2.69345 -3,-4c-0.76538,-1.84775 -1,-5 -1,-7c0,-3 0,-6 0,-9c0,-2 1,-4 2,-6c1,-2 2.29291,-2.29291 3,-3c0.70709,-0.70709 1.29291,-1.70709 2,-1c0.70709,0.70709 0.4588,2.69345 1,4c0.76538,1.84775 0.29291,3.29291 1,4c0.70709,0.70709 1,-1 1,-2c0,-1 0.77023,-2.02676 1,-3c0.51373,-2.17624 1.29291,-2.29291 2,-3c0.70709,-0.70709 2.07611,-1.38269 3,-1c1.30655,0.5412 1,2 2,4c1,2 2.48627,2.82376 3,5c0.22977,0.97324 0.23462,2.15225 1,4c0.5412,1.30655 1,2 1,3l0,1l0,1"
              id="svg_19" stroke="whitesmoke" fill="none"/>
        <path stroke-width="10"
              d="m402,415c2,0 3.02676,0.22977 4,0c2.17624,-0.51373 5,-1 7,-2c2,-1 3.4588,-1.69345 4,-3c0.38269,-0.92389 1,-2 1,-3c0,-1 -0.07611,-1.61731 -1,-2c-1.30655,-0.5412 -2,-1 -3,-1c-1,0 -3.186,-0.30746 -5,1c-2.29453,1.65381 -3.34619,2.70547 -5,5c-1.30746,1.814 -2,4 -3,6c-1,2 -1,4 -1,6c0,2 0,4 1,6c1,2 3.06601,3.87766 5,5c3.11847,1.80972 5,3 8,4c3,1 6,1 8,1c1,0 2.29291,0.70709 3,0c0.70709,-0.70709 0,-2 0,-3c0,-1 0,-2 0,-3c0,-1 0,-2 0,-3l0,-1"
              id="svg_20" stroke="whitesmoke" fill="none"/>
        <path stroke-width="10"
              d="m442,385c0,2 0.51944,4.03873 1,7c0.50653,3.12143 0.78986,6.07843 2,9c0.85571,2.06586 1.14429,4.93414 2,7c1.21014,2.92157 1,5 2,7c1,2 1,3 2,4l0,1"
              id="svg_21" stroke="whitesmoke" fill="none"/>
        <path stroke-width="10"
              d="m458,423c-1,0 -2,0 -3,1c-1,1 -2,2 -2,3c0,1 -0.38269,2.07611 0,3c0.5412,1.30655 2,1 3,1c1,0 2,0 2,-1c0,-1 1,-1 1,-2c0,-1 0,-2 -1,-2c-1,0 -1,-1 -2,-1l-1,0"
              id="svg_24" stroke="whitesmoke" fill="none"/>
    </g>
</svg>
